<svg id="Layer_1" data-name="Layer 1" xmlns="http://www.w3.org/2000/svg" viewBox="0 0 650.72 613.09"><defs><style>.cls-1,.cls-2{fill:#231f20;}.cls-2{font-size:376px;font-family:BebasNeue-Regular, Bebas Neue;}</style></defs><path class="cls-1" d="M731.1,698.26s-213.89.84-222.47,169.61,81.73,191,106.34,199.39l30-41L730.2,1198.4l-177.39,37.83,22.75-40.17S337.9,1011.57,423.26,841.35,622,669.77,731.14,673.51Z" transform="translate(-404.76 -672.67)"/><path class="cls-1" d="M753.23,1107.58l8.21,178.18s292.89-110.48,294-297.68S950.61,721.29,797.54,689.48l3.87-9.39-47.84,2,31.54,31.66,4.29-6.39S980.57,748.91,989,914.5,874.8,1148.33,753.23,1107.58Z" transform="translate(-404.76 -672.67)"/><text class="cls-2" transform="translate(255.66 357.01)">B</text></svg>